ply
format ascii 1.0
comment VCGLIB generated
element vertex 6
property float x
property float y
property float z
property float nx
property float ny
property float nz
property uchar red
property uchar green
property uchar blue
property uchar alpha
property float texture_u
property float texture_v
element face 2
property list uchar int vertex_indices
end_header
1 2.185569e-08 1 0 1 0 107 118 178 255 0.0009765625 0.002357602
0 2.185569e-08 1 0 1 0 107 118 178 255 0.0009765625 0.9990234
1 -2.185569e-08 0 0 1 0 107 118 178 255 0.9990234 0.0009765625
0 -2.185569e-08 0 0 1 0 107 118 178 255 0.9976424 0.9990234
1 2.185569e-08 1 0 1 0 107 118 178 255 0.002357631 0.0009765625
0 -2.185569e-08 0 0 1 0 107 118 178 255 0.9990234 0.9976424
3 3 1 0 
3 4 2 5 
